<?xml version="1.0" encoding="UTF-8"?>
<svg id="svg1" width="16px" height="16px" version="1.1" viewBox="0 0 16 16" xmlns="http://www.w3.org/2000/svg">
 <path id="path1-6" d="m7.1928 8.8797c-0.22684-0.21372-0.37565-0.511-0.39084-0.84107 0.052481-1.4888 0.56624-3.6764 0.8314-4.9028 0.058005-0.34527 0.46956-0.41984 0.67948-0.2044 0.04972 0.04972 0.08563 0.11325 0.10496 0.19335 0.29831 0.99437 0.56348 3.2041 0.78168 4.8752 0.02762 0.65739-0.49166 1.2098-1.1463 1.2181-0.32869 0.0055-0.63357-0.12464-0.8604-0.33836z" fill="#222"/>
 <path id="path2" d="m7.998 0a8 8 0 0 0-7.998 8.002 8 8 0 0 0 8 7.998 8 8 0 0 0 8-8h-1.5a6.5 6.5 0 0 1-6.5 6.5 6.5 6.5 0 0 1-6.5-6.5 6.5 6.5 0 0 1 6.498-6.5 6.5 6.5 0 0 1 6.502 6.498h1.5a8 8 0 0 0-8.002-7.998z" fill="#222" stroke-linecap="round" stroke-linejoin="bevel" stroke-width="2.383" style="paint-order:fill markers stroke"/>
</svg>
