<?xml version="1.0" encoding="UTF-8"?>
<svg id="svg1" width="16px" height="16px" version="1.1" viewBox="0 0 16 16" xmlns="http://www.w3.org/2000/svg">
 <path id="path1" d="m2.9805 13s-0.90625 0.0039-0.90625-1.0703v-7.8594c0-1.0703 0.90625-1.0703 0.90625-1.0703h0.09375c0.17578-0.00391 0.34766 0.035156 0.5 0.125l7 4c0.3125 0.17188 0.46875 0.52344 0.46875 0.875s-0.15625 0.70312-0.46875 0.875l-7 4c-0.15234 0.085938-0.32422 0.125-0.5 0.125zm9.5625 0c-0.27344 0-0.5-0.22656-0.5-0.5v-9c0-0.27734 0.22656-0.5 0.5-0.5h1c0.27734 0 0.5 0.22266 0.5 0.5v9c0 0.27344-0.22266 0.5-0.5 0.5z" fill="#222"/>
</svg>
