<?xml version="1.0" encoding="UTF-8" standalone="no"?>
<!-- Created with Inkscape (http://www.inkscape.org/) -->

<svg
   inkscape:export-ydpi="96"
   inkscape:export-xdpi="96"
   inkscape:export-filename="Template.png"
   width="192"
   height="152"
   id="svg11300"
   sodipodi:version="0.32"
   inkscape:version="1.4.2 (ebf0e940d0, 2025-05-08)"
   sodipodi:docname="io.github.diegopvlk.Tomatillo.Source.svg"
   inkscape:output_extension="org.inkscape.output.svg.inkscape"
   version="1.0"
   style="display:inline;enable-background:new"
   viewBox="0 0 192 152"
   xml:space="preserve"
   xmlns:inkscape="http://www.inkscape.org/namespaces/inkscape"
   xmlns:sodipodi="http://sodipodi.sourceforge.net/DTD/sodipodi-0.dtd"
   xmlns:xlink="http://www.w3.org/1999/xlink"
   xmlns="http://www.w3.org/2000/svg"
   xmlns:svg="http://www.w3.org/2000/svg"
   xmlns:rdf="http://www.w3.org/1999/02/22-rdf-syntax-ns#"
   xmlns:cc="http://creativecommons.org/ns#"
   xmlns:dc="http://purl.org/dc/elements/1.1/"><title
     id="title4162">Adwaita Icon Template</title><defs
     id="defs3"><linearGradient
       inkscape:collect="always"
       id="linearGradient11"><stop
         style="stop-color:#2ec27e;stop-opacity:1;"
         offset="0.47747564"
         id="stop10" /><stop
         style="stop-color:#25935c;stop-opacity:1;"
         offset="1"
         id="stop11" /></linearGradient><inkscape:path-effect
       effect="powerclip"
       message=""
       id="path-effect50"
       is_visible="true"
       lpeversion="1"
       inverse="true"
       flatten="false"
       hide_clip="false" /><linearGradient
       id="linearGradient23"
       inkscape:collect="always"><stop
         style="stop-color:#d4ffdd;stop-opacity:1;"
         offset="0.46514076"
         id="stop22" /><stop
         style="stop-color:#ffffff;stop-opacity:1;"
         offset="1"
         id="stop23" /></linearGradient><linearGradient
       inkscape:collect="always"
       id="linearGradient6"><stop
         style="stop-color:#7ae7a5;stop-opacity:1;"
         offset="0"
         id="stop5" /><stop
         style="stop-color:#2ec27e;stop-opacity:1;"
         offset="1"
         id="stop6" /></linearGradient><clipPath
       clipPathUnits="userSpaceOnUse"
       id="clipPath1609-3-1-6"><path
         sodipodi:nodetypes="cccccc"
         inkscape:connector-curvature="0"
         id="path1611-6-6-8"
         d="m 252,116 28,-28 v -8 h -36 v 36 z"
         style="fill:#e74747;stroke:none;stroke-width:0.25px;stroke-linecap:butt;stroke-linejoin:miter;stroke-opacity:1" /></clipPath><inkscape:path-effect
       effect="fillet_chamfer"
       id="path-effect13944"
       is_visible="true"
       lpeversion="1"
       satellites_param="F,0,0,1,0,8,0,1 @ F,0,0,1,0,0,0,1 @ F,0,0,1,0,0,0,1 @ F,0,0,1,0,0,0,1 @ F,0,0,1,0,0,0,1 @ F,0,0,1,0,0,0,1 @ F,0,0,1,0,0,0,1 @ F,0,0,1,0,0,0,1 @ F,0,0,1,0,0,0,1"
       unit="px"
       method="auto"
       mode="F"
       radius="0"
       chamfer_steps="1"
       flexible="false"
       use_knot_distance="true"
       apply_no_radius="true"
       apply_with_radius="true"
       only_selected="false"
       hide_knots="false"
       nodesatellites_param="F,0,0,1,0,8,0,1 @ F,0,0,1,0,0,0,1 @ F,0,0,1,0,0,0,1 @ F,0,0,1,0,0,0,1 @ F,0,0,1,0,0,0,1 @ F,0,0,1,0,0,0,1 @ F,0,0,1,0,0,0,1 @ F,0,0,1,0,0,0,1 @ F,0,0,1,0,0,0,1" /><clipPath
       clipPathUnits="userSpaceOnUse"
       id="clipPath1609-3-1-6-9"><path
         sodipodi:nodetypes="cccccc"
         inkscape:connector-curvature="0"
         id="path1611-6-6-8-3"
         d="m 252,116 28,-28 v -8 h -36 v 36 z"
         style="fill:#e74747;stroke:none;stroke-width:0.25px;stroke-linecap:butt;stroke-linejoin:miter;stroke-opacity:1" /></clipPath><clipPath
       clipPathUnits="userSpaceOnUse"
       id="clipPath28140"><path
         sodipodi:nodetypes="cccccc"
         inkscape:connector-curvature="0"
         id="path28142"
         d="M 244.36364,123.63637 280,88.000003 V 77.818198 h -45.81817 v 45.818172 z"
         style="fill:#e74747;stroke:none;stroke-width:0.250001px;stroke-linecap:butt;stroke-linejoin:miter;stroke-opacity:1" /></clipPath><clipPath
       clipPathUnits="userSpaceOnUse"
       id="clipPath28145"><path
         sodipodi:nodetypes="cccccc"
         inkscape:connector-curvature="0"
         id="path28147"
         d="M 244.36364,123.63637 280,88.000003 v -8.000007 h -43.63636 v 43.636374 z"
         style="fill:#e74747;stroke:none;stroke-width:0.250001px;stroke-linecap:butt;stroke-linejoin:miter;stroke-opacity:1" /></clipPath><linearGradient
       id="a-0"
       x1="7.9369998"
       x2="7.9369998"
       y1="15.081"
       y2="1.852"
       gradientTransform="scale(3.7796)"
       gradientUnits="userSpaceOnUse"><stop
         stop-color="#f1efeb"
         offset="0"
         id="stop3"
         style="stop-color:#fa6b72;stop-opacity:1;" /><stop
         stop-color="#fdfcfc"
         offset="1"
         id="stop4"
         style="stop-color:#f70d21;stop-opacity:1;" /></linearGradient><linearGradient
       inkscape:collect="always"
       xlink:href="#linearGradient23"
       id="linearGradient22"
       x1="28.946289"
       y1="248.28419"
       x2="28.946289"
       y2="190.64763"
       gradientUnits="userSpaceOnUse" /><radialGradient
       inkscape:collect="always"
       xlink:href="#linearGradient6"
       id="radialGradient7-72-4"
       cx="89.045868"
       cy="229.55965"
       fx="89.045868"
       fy="229.55965"
       r="58.117779"
       gradientTransform="matrix(-0.85264064,1.1529456e-7,-1.0556141e-7,-0.5508449,163.92415,330.45175)"
       gradientUnits="userSpaceOnUse" /><radialGradient
       id="paint15_radial"
       cx="0"
       cy="0"
       r="1"
       gradientUnits="userSpaceOnUse"
       gradientTransform="matrix(114.98812,-45.737943,28.411703,71.428843,-18.171902,205.95509)"><stop
         stop-color="white"
         id="stop55" /><stop
         offset="1"
         stop-color="white"
         stop-opacity="0"
         id="stop56" /></radialGradient><linearGradient
       inkscape:collect="always"
       xlink:href="#linearGradient23"
       id="linearGradient3"
       gradientUnits="userSpaceOnUse"
       x1="28.946289"
       y1="248.28419"
       x2="28.946289"
       y2="190.64763" /><linearGradient
       inkscape:collect="always"
       xlink:href="#linearGradient23"
       id="linearGradient4"
       gradientUnits="userSpaceOnUse"
       x1="28.946289"
       y1="248.28419"
       x2="28.946289"
       y2="190.64763" /><filter
       id="mask-powermask-path-effect51_inverse"
       inkscape:label="filtermask-powermask-path-effect51"
       style="color-interpolation-filters:sRGB"
       height="100"
       width="100"
       x="-50"
       y="-50"><feColorMatrix
         id="mask-powermask-path-effect51_primitive1"
         values="1"
         type="saturate"
         result="fbSourceGraphic" /><feColorMatrix
         id="mask-powermask-path-effect51_primitive2"
         values="-1 0 0 0 1 0 -1 0 0 1 0 0 -1 0 1 0 0 0 1 0 "
         in="fbSourceGraphic" /></filter><clipPath
       clipPathUnits="userSpaceOnUse"
       id="clipPath54-4"><path
         id="path54-1"
         style="fill:#ffffff;fill-opacity:1;stroke:none;stroke-width:0.383726;stroke-linecap:round;stroke-linejoin:bevel;stroke-dasharray:none;stroke-opacity:1;paint-order:fill markers stroke"
         d="M 213.54883,169.98242 64,170 h 149.55664 a 153.1561,74.245605 0 0 0 -0.008,-0.0176 z m -301.623049,8.01367 A 153.1561,74.245605 0 0 0 -89.15625,186.00977 153.1561,74.245605 0 0 0 64.009766,260.24609 153.1561,74.245605 0 0 0 217.15625,186 h -3.59961 a 153.1561,74.245605 0 0 1 -149.546874,58.24609 153.1561,74.245605 0 0 1 -152.083985,-66.25 z m 304.333989,0.0117 a 153.1561,74.245605 0 0 1 -2.69336,7.97461 h 3.58984 a 153.1561,74.245605 0 0 0 -0.89648,-7.97461 z" /></clipPath><radialGradient
       inkscape:collect="always"
       xlink:href="#linearGradient6"
       id="radialGradient7-72-4-2"
       cx="89.045868"
       cy="229.55965"
       fx="89.045868"
       fy="229.55965"
       r="58.117779"
       gradientTransform="matrix(-0.85264064,1.1529456e-7,-1.0556141e-7,-0.5508449,163.92415,474.45175)"
       gradientUnits="userSpaceOnUse" /><linearGradient
       inkscape:collect="always"
       xlink:href="#linearGradient11"
       id="linearGradient10"
       x1="64.000977"
       y1="199.76758"
       x2="64.000977"
       y2="319.60938"
       gradientUnits="userSpaceOnUse" /></defs><sodipodi:namedview
     stroke="#ef2929"
     fill="#f57900"
     id="base"
     pagecolor="#ffffff"
     bordercolor="#666666"
     borderopacity="0.25490196"
     inkscape:pageopacity="0.0"
     inkscape:pageshadow="2"
     inkscape:zoom="4.5254834"
     inkscape:cx="89.272231"
     inkscape:cy="69.384853"
     inkscape:current-layer="layer1"
     showgrid="false"
     inkscape:grid-bbox="true"
     inkscape:document-units="px"
     inkscape:showpageshadow="false"
     inkscape:window-width="1920"
     inkscape:window-height="1011"
     inkscape:window-x="0"
     inkscape:window-y="0"
     width="400px"
     height="300px"
     inkscape:snap-nodes="true"
     inkscape:snap-bbox="true"
     objecttolerance="7"
     gridtolerance="12"
     guidetolerance="13"
     inkscape:window-maximized="1"
     inkscape:pagecheckerboard="false"
     showguides="false"
     inkscape:guide-bbox="true"
     inkscape:locked="false"
     inkscape:measure-start="0,0"
     inkscape:measure-end="0,0"
     inkscape:object-nodes="true"
     inkscape:bbox-nodes="true"
     inkscape:snap-global="true"
     inkscape:object-paths="true"
     inkscape:snap-intersection-paths="true"
     inkscape:snap-bbox-edge-midpoints="true"
     inkscape:snap-bbox-midpoints="true"
     showborder="true"
     inkscape:snap-center="true"
     inkscape:snap-object-midpoints="true"
     inkscape:snap-midpoints="true"
     inkscape:snap-smooth-nodes="true"
     inkscape:snap-text-baseline="true"
     borderlayer="true"
     inkscape:deskcolor="#d1d1d1"
     inkscape:antialias-rendering="true"><inkscape:grid
       type="xygrid"
       id="grid5883"
       spacingx="2"
       spacingy="2"
       enabled="true"
       visible="false"
       empspacing="4"
       originx="8"
       originy="8"
       units="px"
       snapvisiblegridlinesonly="true" /><sodipodi:guide
       position="72,16"
       orientation="0,1"
       id="guide1073"
       inkscape:locked="false"
       inkscape:label=""
       inkscape:color="rgb(0,0,255)" /><sodipodi:guide
       position="20,72"
       orientation="1,0"
       id="guide1075"
       inkscape:locked="false"
       inkscape:label=""
       inkscape:color="rgb(0,0,255)" /><sodipodi:guide
       position="72,112"
       orientation="0,1"
       id="guide1099"
       inkscape:locked="false"
       inkscape:label=""
       inkscape:color="rgb(0,0,255)" /><sodipodi:guide
       position="72,136"
       orientation="0,1"
       id="guide993"
       inkscape:locked="false"
       inkscape:label=""
       inkscape:color="rgb(0,0,255)" /><sodipodi:guide
       position="112,72"
       orientation="1,0"
       id="guide995"
       inkscape:locked="false"
       inkscape:label=""
       inkscape:color="rgb(0,0,255)" /><sodipodi:guide
       position="8.0000001,72"
       orientation="1,0"
       id="guide867"
       inkscape:locked="false"
       inkscape:label=""
       inkscape:color="rgb(0,0,255)" /><sodipodi:guide
       position="128,72"
       orientation="1,0"
       id="guide869"
       inkscape:locked="false"
       inkscape:label=""
       inkscape:color="rgb(0,0,255)" /><sodipodi:guide
       position="72,124"
       orientation="0,1"
       id="guide871"
       inkscape:locked="false"
       inkscape:label=""
       inkscape:color="rgb(0,0,255)" /><inkscape:grid
       type="xygrid"
       id="grid873"
       spacingx="1"
       spacingy="1"
       empspacing="8"
       color="#000000"
       opacity="0.49019608"
       empcolor="#000000"
       empopacity="0.08627451"
       dotted="true"
       originx="8"
       originy="8"
       units="px"
       visible="false" /><sodipodi:guide
       position="32,72"
       orientation="1,0"
       id="guide877"
       inkscape:locked="false"
       inkscape:label=""
       inkscape:color="rgb(0,0,255)" /><sodipodi:guide
       position="124,72"
       orientation="1,0"
       id="guide879"
       inkscape:locked="false"
       inkscape:label=""
       inkscape:color="rgb(0,0,255)" /><sodipodi:guide
       position="72,128"
       orientation="0,1"
       id="guide881"
       inkscape:locked="false"
       inkscape:label=""
       inkscape:color="rgb(0,0,255)" /><sodipodi:guide
       position="72,20"
       orientation="0,1"
       id="guide883"
       inkscape:locked="false"
       inkscape:label=""
       inkscape:color="rgb(0,0,255)" /><sodipodi:guide
       position="16,72"
       orientation="1,0"
       id="guide885"
       inkscape:locked="false"
       inkscape:label=""
       inkscape:color="rgb(0,0,255)" /><sodipodi:guide
       position="136,72"
       orientation="1,0"
       id="guide887"
       inkscape:locked="false"
       inkscape:label=""
       inkscape:color="rgb(0,0,255)" /><sodipodi:guide
       position="72,8"
       orientation="0,1"
       id="guide897"
       inkscape:locked="false"
       inkscape:label=""
       inkscape:color="rgb(0,0,255)" /><sodipodi:guide
       position="72,32"
       orientation="0,1"
       id="guide899"
       inkscape:locked="false"
       inkscape:label=""
       inkscape:color="rgb(0,0,255)" /><sodipodi:guide
       position="264,264"
       orientation="-0.70710678,0.70710678"
       id="guide950"
       inkscape:locked="false"
       inkscape:label=""
       inkscape:color="rgb(0,0,255)" /><sodipodi:guide
       position="72,72"
       orientation="0.70710678,0.70710678"
       id="guide952"
       inkscape:locked="false"
       inkscape:label=""
       inkscape:color="rgb(0,0,255)" /></sodipodi:namedview><metadata
     id="metadata4"><rdf:RDF><cc:Work
         rdf:about=""><dc:format>image/svg+xml</dc:format><dc:type
           rdf:resource="http://purl.org/dc/dcmitype/StillImage" /><dc:creator><cc:Agent><dc:title>GNOME Design Team</dc:title></cc:Agent></dc:creator><dc:source /><cc:license
           rdf:resource="http://creativecommons.org/licenses/by-sa/4.0/" /><dc:title>Adwaita Icon Template</dc:title><dc:subject><rdf:Bag /></dc:subject><dc:date /><dc:rights><cc:Agent><dc:title /></cc:Agent></dc:rights><dc:publisher><cc:Agent><dc:title /></cc:Agent></dc:publisher><dc:identifier /><dc:relation /><dc:language /><dc:coverage /><dc:description /><dc:contributor><cc:Agent><dc:title /></cc:Agent></dc:contributor></cc:Work><cc:License
         rdf:about="http://creativecommons.org/licenses/by-sa/4.0/"><cc:permits
           rdf:resource="http://creativecommons.org/ns#Reproduction" /><cc:permits
           rdf:resource="http://creativecommons.org/ns#Distribution" /><cc:requires
           rdf:resource="http://creativecommons.org/ns#Notice" /><cc:requires
           rdf:resource="http://creativecommons.org/ns#Attribution" /><cc:permits
           rdf:resource="http://creativecommons.org/ns#DerivativeWorks" /><cc:requires
           rdf:resource="http://creativecommons.org/ns#ShareAlike" /></cc:License></rdf:RDF></metadata><g
     id="layer1"
     inkscape:label="App Icon"
     inkscape:groupmode="layer"
     style="display:inline"
     transform="translate(8,-156)"><g
       inkscape:groupmode="layer"
       id="layer4"
       inkscape:label="template"
       style="display:inline"
       sodipodi:insensitive="true"><rect
         inkscape:label="0"
         y="172"
         x="9.2651362e-08"
         height="128"
         width="128"
         id="hicolor"
         style="display:inline;overflow:visible;visibility:visible;fill:#f0f0f0;fill-opacity:0;fill-rule:nonzero;stroke:none;stroke-width:0.5;marker:none;enable-background:accumulate" /><rect
         style="display:inline;overflow:visible;visibility:visible;fill:#f0f0f0;fill-opacity:0;fill-rule:nonzero;stroke:none;stroke-width:0.5;marker:none;enable-background:accumulate"
         id="symbolic"
         width="16"
         height="16"
         x="160"
         y="172"
         inkscape:label="0" /></g><g
       inkscape:groupmode="layer"
       id="layer2"
       inkscape:label="baseplate"
       style="display:inline"
       sodipodi:insensitive="true"><g
         style="display:inline;fill:#000000;enable-background:new"
         transform="matrix(7.9911709,0,0,8.0036407,-167.7909,-4846.0776)"
         id="g12027"
         inkscape:export-xdpi="12"
         inkscape:export-ydpi="12" /><rect
         style="display:inline;overflow:visible;visibility:visible;fill:#f0f0f0;fill-opacity:1;fill-rule:nonzero;stroke:none;stroke-width:0.5;marker:none;enable-background:accumulate"
         id="128"
         width="128"
         height="128"
         x="9.2651362e-08"
         y="172"
         inkscape:label="0" /><g
         id="g883"
         style="fill:none;fill-opacity:0.25098;stroke:#a579b3;stroke-opacity:1"
         transform="translate(-24,24)" /><g
         id="g900"
         style="fill:none;fill-opacity:0.25098;stroke:#a579b3;stroke-opacity:1"
         transform="translate(-24,24)" /><rect
         inkscape:label=""
         y="172"
         x="160"
         height="16"
         width="16"
         id="16"
         style="display:inline;overflow:visible;visibility:visible;fill:#f0f0f0;fill-opacity:1;fill-rule:nonzero;stroke:none;stroke-width:0.5;marker:none;enable-background:accumulate" /><text
         xml:space="preserve"
         style="font-style:normal;font-variant:normal;font-weight:bold;font-stretch:normal;font-size:4px;line-height:125%;font-family:Cantarell;-inkscape-font-specification:'Cantarell, Bold';text-align:start;writing-mode:lr-tb;text-anchor:start;display:inline;fill:#000000;fill-opacity:1;stroke:none;stroke-width:0.332649;enable-background:new"
         x="0"
         y="167"
         id="text863"
         inkscape:label="icon-name"><tspan
           style="font-size:4px;stroke-width:0.332649"
           sodipodi:role="line"
           id="tspan861"
           x="0"
           y="167">Hicolor</tspan></text><text
         inkscape:label="icon-name"
         id="text867"
         y="167"
         x="160"
         style="font-style:normal;font-variant:normal;font-weight:bold;font-stretch:normal;font-size:4px;line-height:125%;font-family:Cantarell;-inkscape-font-specification:'Cantarell, Bold';text-align:start;writing-mode:lr-tb;text-anchor:start;display:inline;fill:#000000;fill-opacity:1;stroke:none;stroke-width:0.332649;enable-background:new"
         xml:space="preserve"><tspan
           y="167"
           x="160"
           id="tspan865"
           sodipodi:role="line"
           style="font-size:4px;stroke-width:0.332649">Symbolic</tspan></text></g><g
       inkscape:groupmode="layer"
       id="layer9"
       inkscape:label="icons"
       style="display:inline"><g
         transform="matrix(-1,0,0,1,-80,934)"
         style="display:inline;enable-background:new"
         id="g36832" /><filter
         id="a"
         height="1"
         width="1"
         x="0"
         y="0"><feColorMatrix
           in="SourceGraphic"
           type="matrix"
           values="0 0 0 0 1 0 0 0 0 1 0 0 0 0 1 0 0 0 1 0"
           id="feColorMatrix161671" /></filter><mask
         id="b"><g
           filter="url(#a)"
           id="g161676"><path
             d="M 0,0 H 16 V 16 H 0 Z"
             fill-opacity="0.3"
             id="path161674" /></g></mask><clipPath
         id="c"><path
           d="M 0,0 H 1600 V 1200 H 0 Z"
           id="path161679" /></clipPath><g
         clip-path="url(#c)"
         mask="url(#b)"
         transform="translate(-21.999996,-126)"
         id="g161686"
         style="display:inline;fill:#222222;fill-opacity:1"
         sodipodi:insensitive="true"><path
           d="m 580.9375,215.75 v -2.1875 l 4.21875,-1.12891 2.34375,0.59375 2.38672,-0.66797 3.74219,1 v 2.45313 z m 0,0"
           fill="#474747"
           id="path161684"
           style="fill:#222222;fill-opacity:1" /></g></g><g
       inkscape:groupmode="layer"
       id="layer3"
       inkscape:label="grid"
       style="display:inline"
       sodipodi:insensitive="true"><circle
         cx="64.000031"
         cy="236"
         r="59.504131"
         id="circle2892"
         style="display:inline;opacity:0.1;vector-effect:none;fill:none;fill-opacity:1;stroke:#000000;stroke-width:0.99;stroke-linecap:butt;stroke-linejoin:miter;stroke-miterlimit:4;stroke-dasharray:0.99, 0.99;stroke-dashoffset:0;stroke-opacity:1;marker:none;marker-start:none;marker-mid:none;marker-end:none;paint-order:normal;enable-background:new" /><rect
         ry="7.9292889"
         rx="8.701004"
         y="180.49496"
         x="20.495007"
         height="111.01005"
         width="87.009987"
         id="rect2894"
         style="display:inline;opacity:0.1;vector-effect:none;fill:none;fill-opacity:1;stroke:#000000;stroke-width:0.99;stroke-linecap:butt;stroke-linejoin:miter;stroke-miterlimit:4;stroke-dasharray:0.99, 0.99;stroke-dashoffset:0;stroke-opacity:1;marker:none;marker-start:none;marker-mid:none;marker-end:none;paint-order:normal;enable-background:new" /><rect
         ry="7.9238095"
         rx="7.9238095"
         y="184.49524"
         x="12.495266"
         height="103.00952"
         width="103.00952"
         id="rect2896"
         style="display:inline;opacity:0.1;vector-effect:none;fill:none;fill-opacity:1;stroke:#000000;stroke-width:0.99;stroke-linecap:butt;stroke-linejoin:miter;stroke-miterlimit:4;stroke-dasharray:0.99, 0.99;stroke-dashoffset:0;stroke-opacity:1;marker:none;marker-start:none;marker-mid:none;marker-end:none;paint-order:normal;enable-background:new" /><rect
         ry="8.701005"
         rx="7.9292889"
         y="200.49496"
         x="8.4950066"
         height="87.010048"
         width="111.01004"
         id="rect2898"
         style="display:inline;opacity:0.1;vector-effect:none;fill:none;fill-opacity:1;stroke:#000000;stroke-width:0.99;stroke-linecap:butt;stroke-linejoin:miter;stroke-miterlimit:4;stroke-dasharray:0.99, 0.99;stroke-dashoffset:0;stroke-opacity:1;marker:none;marker-start:none;marker-mid:none;marker-end:none;paint-order:normal;enable-background:new" /><path
         inkscape:connector-curvature="0"
         id="path2900"
         d="M 2.6203015e-5,288.99999 H 128.00003"
         style="display:inline;fill:none;stroke:#62a0ea;stroke-width:2;stroke-linecap:butt;stroke-linejoin:miter;stroke-miterlimit:4;stroke-dasharray:none;stroke-opacity:1;enable-background:new" /></g><path
       id="path1-8"
       style="display:inline;fill:#259d67;stroke-width:3.32294;enable-background:new;fill-opacity:1"
       d="M 46.00618,185.05063 C 12.096629,186.89066 2.1731772,219.51383 4.2659252,237.46984 7.2716672,263.25943 30.967138,288.73453 64.000008,289 c 33.032872,-0.26547 56.728342,-25.74057 59.734062,-51.53016 2.09275,-17.95601 -7.83069,-50.57918 -41.74024,-52.41921 -4.812505,-0.26113 -12.14647,0.53018 -17.993822,1.40453 -5.847363,-0.87459 -13.181318,-1.66566 -17.993828,-1.40453 z"
       sodipodi:nodetypes="cscsscc" /><path
       style="display:inline;fill:#176c46;fill-opacity:1;fill-rule:evenodd;stroke:none;stroke-width:2.38277;stroke-linecap:round;stroke-linejoin:round;stroke-dasharray:none;stroke-opacity:1;paint-order:fill markers stroke;enable-background:new"
       d="m 64,248 c -1.107997,0 -2,0.892 -2,2 v 12 c 0,1.108 0.892003,2 2,2 1.107997,0 2,-0.892 2,-2 v -12 c 0,-1.108 -0.892003,-2 -2,-2 z"
       id="path96-8"
       sodipodi:nodetypes="sssssss" /><path
       id="path1-97"
       style="display:inline;fill:#000000;stroke-width:0.443059;enable-background:new"
       d="M 165.60156 173.00586 C 161.08028 173.25119 159.75613 177.60196 160.03516 179.99609 C 160.43593 183.43471 163.59561 186.8318 168 186.86719 C 172.40438 186.83179 175.56407 183.43471 175.96484 179.99609 C 176.24387 177.60196 174.91972 173.25119 170.39844 173.00586 C 169.75678 172.97106 168.77964 173.07679 168 173.19336 C 167.22035 173.07675 166.24323 172.97104 165.60156 173.00586 z M 166.20117 174.9375 C 166.68241 174.91237 167.41526 174.98827 168 175.07227 C 168.58472 174.98835 169.3176 174.9125 169.79883 174.9375 C 173.18979 175.11441 174.18193 178.252 173.97266 179.97852 C 173.67207 182.4583 171.3033 184.90799 168 184.93359 C 164.69668 184.90808 162.32793 182.4583 162.02734 179.97852 C 161.81807 178.252 162.81021 175.11441 166.20117 174.9375 z " /><path
       id="path1-6-9"
       style="display:inline;fill:url(#radialGradient7-72-4);stroke-width:3.32294;enable-background:new"
       d="M 46.006201,183.05063 C 12.09665,184.89066 2.1731976,217.51383 4.2659458,235.46984 7.271688,261.25943 30.967159,286.73453 64.000029,287 97.0329,286.73453 120.72837,261.25943 123.73409,235.46984 c 2.09275,-17.95601 -7.83069,-50.57918 -41.740239,-52.41921 -4.812505,-0.26113 -11.977637,1.40453 -17.993822,1.40453 -6.016187,0 -13.181318,-1.66566 -17.993828,-1.40453 z"
       sodipodi:nodetypes="cscssac" /><path
       style="display:inline;fill:url(#linearGradient10);stroke-width:3.32294;enable-background:new"
       d="m 123.92188,232.37695 c -5.30003,1.34231 -32.545425,7.89063 -59.92188,7.89063 -32.421196,0 -55.1475019,-6.37654 -59.9199219,-7.83399 0.041448,1.03387 0.073967,2.07975 0.1855469,3.03711 C 7.2713672,261.26029 30.96713,286.73453 64,287 c 33.032871,-0.26547 56.72866,-25.73971 59.73438,-51.5293 0.1136,-0.97477 0.14663,-2.0398 0.1875,-3.09375 z"
       id="path10" /><path
       id="path1-6-9-8"
       style="display:inline;fill:#5cd299;stroke-width:3.32294;enable-background:new;fill-opacity:1"
       d="M 123.88477 227.35547 C 118.70522 228.83606 94.711382 235.18359 64 235.18359 C 30.365531 235.18359 9.0619405 229.01924 4.1113281 227.42383 C 3.9708305 229.53324 3.9658381 231.55822 4.0859375 233.45312 C 8.9184641 234.92671 31.64147 241.2832 64 241.2832 C 91.318478 241.2832 118.5364 234.75792 123.91797 233.39648 C 124.03575 231.49738 124.02828 229.46853 123.88477 227.35547 z " /><path
       id="path1-6-9-6"
       style="display:inline;fill:#176c46;stroke-width:3.32294;enable-background:new;fill-opacity:1"
       d="M 123.71289 225.37109 C 118.19165 226.93764 94.382604 233.15039 64 233.15039 C 30.736338 233.15039 9.5314785 227.12149 4.2792969 225.44531 C 4.0635089 227.50629 3.9765911 229.50188 4.0058594 231.39453 C 8.6619739 232.82054 31.458505 239.25 64 239.25 C 91.452347 239.25 118.80372 232.66072 123.99609 231.34375 C 124.02336 229.44391 123.93229 227.43939 123.71289 225.37109 z " /><path
       id="path1-6-9-7"
       style="display:inline;fill:#20925d;stroke-width:3.32294;enable-background:new;fill-opacity:1"
       d="M 123.80859 226.36133 C 118.47189 227.88169 94.56152 234.16602 64 234.16602 C 30.534115 234.16602 9.2743706 228.06437 4.1855469 226.43164 C 4.0066121 228.51585 3.9598984 230.52569 4.0332031 232.41992 C 8.751313 233.86272 31.52247 240.26758 64 240.26758 C 91.406101 240.26758 118.71066 233.69964 123.96875 232.36719 C 124.03998 230.46718 123.9908 228.45119 123.80859 226.36133 z " /><path
       style="display:inline;fill:url(#radialGradient7-72-4-2);stroke-width:3.32294;enable-background:new"
       d="m 4.1855469,370.43164 c -0.1630341,1.89933 -0.1859312,3.70652 -0.1386719,5.45117 -0.047042,-1.7429 -0.024214,-3.5539 0.1386719,-5.45117 z"
       id="path9" /><path
       style="display:inline;fill:url(#radialGradient7-72-4-2);stroke-width:3.32294;enable-background:new"
       d="m 123.80859,370.36133 c 0.16593,1.90365 0.19171,3.72147 0.14649,5.4707 0.0454,-1.75104 0.0197,-3.56488 -0.14649,-5.4707 z"
       id="path8" /><path
       id="path96-9-5"
       style="display:inline;fill:#219760;fill-opacity:1;fill-rule:evenodd;stroke:none;stroke-width:2.383;stroke-linecap:round;stroke-linejoin:round;stroke-dasharray:none;stroke-opacity:1;paint-order:fill markers stroke;enable-background:new"
       d="m 14,242 c -1.108,0 -2,0.892 -2,2 v 3 c 0,1.108 0.892,2 2,2 1.108,0 2,-0.892 2,-2 v -3 c 0,-1.108 -0.892,-2 -2,-2 z m 100,0 c -1.108,0 -2,0.892 -2,2 v 3 c 0,1.108 0.892,2 2,2 1.108,0 2,-0.892 2,-2 v -3 c 0,-1.108 -0.892,-2 -2,-2 z m -90,2 c -1.108,0 -2,0.892 -2,2 v 9 c 0,1.108 0.892,2 2,2 1.108,0 2,-0.892 2,-2 v -9 c 0,-1.108 -0.892,-2 -2,-2 z m 80,0 c -1.108,0 -2,0.892 -2,2 v 9 c 0,1.108 0.892,2 2,2 1.108,0 2,-0.892 2,-2 v -9 c 0,-1.108 -0.892,-2 -2,-2 z m -70,2 c -1.108,0 -2,0.892 -2,2 v 4 c 0,1.108 0.892,2 2,2 1.108,0 2,-0.892 2,-2 v -4 c 0,-1.108 -0.892,-2 -2,-2 z m 60,0 c -1.108,0 -2,0.892 -2,2 v 4 c 0,1.108 0.892,2 2,2 1.108,0 2,-0.892 2,-2 v -4 c 0,-1.108 -0.892,-2 -2,-2 z m -50,1 c -1.107997,0 -2,0.892 -2,2 v 10 c 0,1.108 0.892003,2 2,2 1.107997,0 2,-0.892 2,-2 v -10 c 0,-1.108 -0.892003,-2 -2,-2 z m 40,0 c -1.107997,0 -2,0.892 -2,2 v 10 c 0,1.108 0.892003,2 2,2 1.107997,0 2,-0.892 2,-2 v -10 c 0,-1.108 -0.892003,-2 -2,-2 z m -30,1 c -1.108,0 -2,0.892 -2,2 v 5 c 0,1.108 0.892,2 2,2 1.108,0 2,-0.892 2,-2 v -5 c 0,-1.108 -0.892,-2 -2,-2 z m 10,0 c -1.107997,0 -2,0.892 -2,2 v 12 c 0,1.108 0.892003,2 2,2 1.107997,0 2,-0.892 2,-2 v -12 c 0,-1.108 -0.892003,-2 -2,-2 z m 10,0 c -1.108,0 -2,0.892 -2,2 v 5 c 0,1.108 0.892,2 2,2 1.108,0 2,-0.892 2,-2 v -5 c 0,-1.108 -0.892,-2 -2,-2 z" /><g
       id="path11-3-4-0"
       inkscape:transform-center-y="2.5757683"
       style="opacity:1;fill:#219760;fill-opacity:1"
       transform="matrix(0.57832055,0,0,0.35519838,47.260206,141.00547)"><path
         style="baseline-shift:baseline;display:inline;overflow:visible;vector-effect:none;fill:#219760;fill-opacity:1;fill-rule:evenodd;stroke-linecap:round;stroke-linejoin:round;paint-order:fill markers stroke;enable-background:new;stop-color:#000000;stop-opacity:1"
         d="M 28.946328,241.22157 3.8259013,197.71171 H 54.066752 Z"
         id="path16" /><path
         style="baseline-shift:baseline;display:inline;overflow:visible;vector-effect:none;fill:#219760;fill-opacity:1;fill-rule:evenodd;stroke-linecap:round;stroke-linejoin:round;paint-order:fill markers stroke;enable-background:new;stop-color:#000000;stop-opacity:1"
         d="m 3.8261719,194.01367 a 3.6984449,3.6984449 0 0 0 -3.20312503,5.54688 L 25.744141,243.07031 a 3.6984449,3.6984449 0 0 0 6.404296,0 l 25.121094,-43.50976 a 3.6984449,3.6984449 0 0 0 -3.203125,-5.54688 z m 6.4062501,7.39649 h 37.427734 l -18.714844,32.41601 z"
         id="path17" /></g><path
       id="rect16"
       style="fill:#229963;fill-opacity:1;fill-rule:evenodd;stroke-width:0.74495;stroke-linecap:round;stroke-linejoin:bevel;paint-order:fill markers stroke"
       d="m 47.334567,209.21089 v 2.22759 h 33.331788 v -2.22759 z" /><g
       id="path11-9-6"
       inkscape:transform-center-y="2.5757681"
       style="opacity:1;fill:url(#linearGradient22);fill-opacity:1"
       transform="matrix(0.57832055,0,0,0.35519838,47.259619,139.08666)"><path
         style="baseline-shift:baseline;display:inline;overflow:visible;vector-effect:none;fill:url(#linearGradient3);fill-opacity:1;fill-rule:evenodd;stroke-linecap:round;stroke-linejoin:round;paint-order:fill markers stroke;enable-background:new;stop-color:#000000;stop-opacity:1"
         d="M 28.946328,241.22157 3.8259013,197.71171 H 54.066752 Z"
         id="path20" /><path
         style="baseline-shift:baseline;display:inline;overflow:visible;vector-effect:none;fill:url(#linearGradient4);fill-opacity:1;fill-rule:evenodd;stroke-linecap:round;stroke-linejoin:round;paint-order:fill markers stroke;enable-background:new;stop-color:#000000;stop-opacity:1"
         d="m 3.8261719,194.01367 a 3.6984449,3.6984449 0 0 0 -3.20312503,5.54688 L 25.744141,243.07031 a 3.6984449,3.6984449 0 0 0 6.404296,0 l 25.121094,-43.50976 a 3.6984449,3.6984449 0 0 0 -3.203125,-5.54688 z m 6.4062501,7.39649 h 37.427734 l -18.714844,32.41601 z"
         id="path21" /></g><path
       id="path96-9-1"
       style="display:inline;fill:#e5ffeb;fill-opacity:1;fill-rule:evenodd;stroke:none;stroke-width:2.38277;stroke-linecap:round;stroke-linejoin:round;stroke-dasharray:none;stroke-opacity:1;paint-order:fill markers stroke;enable-background:new"
       d="m 14,241 c -1.108,0 -2,0.892 -2,2 v 3 c 0,1.108 0.892,2 2,2 1.108,0 2,-0.892 2,-2 v -3 c 0,-1.108 -0.892,-2 -2,-2 z m 100,0 c -1.108,0 -2,0.892 -2,2 v 3 c 0,1.108 0.892,2 2,2 1.108,0 2,-0.892 2,-2 v -3 c 0,-1.108 -0.892,-2 -2,-2 z m -90,2 c -1.108,0 -2,0.892 -2,2 v 9 c 0,1.108 0.892,2 2,2 1.108,0 2,-0.892 2,-2 v -9 c 0,-1.108 -0.892,-2 -2,-2 z m 80,0 c -1.108,0 -2,0.892 -2,2 v 9 c 0,1.108 0.892,2 2,2 1.108,0 2,-0.892 2,-2 v -9 c 0,-1.108 -0.892,-2 -2,-2 z m -70,2 c -1.108,0 -2,0.892 -2,2 v 4 c 0,1.108 0.892,2 2,2 1.108,0 2,-0.892 2,-2 v -4 c 0,-1.108 -0.892,-2 -2,-2 z m 60,0 c -1.108,0 -2,0.892 -2,2 v 4 c 0,1.108 0.892,2 2,2 1.108,0 2,-0.892 2,-2 v -4 c 0,-1.108 -0.892,-2 -2,-2 z m -50,1 c -1.107997,0 -2,0.892 -2,2 v 10 c 0,1.108 0.892003,2 2,2 1.107997,0 2,-0.892 2,-2 v -10 c 0,-1.108 -0.892003,-2 -2,-2 z m 40,0 c -1.107997,0 -2,0.892 -2,2 v 10 c 0,1.108 0.892003,2 2,2 1.107997,0 2,-0.892 2,-2 v -10 c 0,-1.108 -0.892003,-2 -2,-2 z m -30,1 c -1.108,0 -2,0.892 -2,2 v 5 c 0,1.108 0.892,2 2,2 1.108,0 2,-0.892 2,-2 v -5 c 0,-1.108 -0.892,-2 -2,-2 z m 10,0 c -1.107997,0 -2,0.892 -2,2 v 12 c 0,1.108 0.892003,2 2,2 1.107997,0 2,-0.892 2,-2 v -12 c 0,-1.108 -0.892003,-2 -2,-2 z m 10,0 c -1.108,0 -2,0.892 -2,2 v 5 c 0,1.108 0.892,2 2,2 1.108,0 2,-0.892 2,-2 v -5 c 0,-1.108 -0.892,-2 -2,-2 z" /><rect
       style="fill:#000000;fill-opacity:1;fill-rule:evenodd;stroke:none;stroke-width:2.88383;stroke-linecap:round;stroke-linejoin:round;stroke-dasharray:none;stroke-opacity:1;paint-order:fill markers stroke"
       id="rect14"
       width="14"
       height="1"
       x="161"
       y="179" /><path
       sodipodi:type="star"
       style="fill:#000000;fill-opacity:1;fill-rule:evenodd;stroke:none;stroke-width:2.072;stroke-linecap:round;stroke-linejoin:round;stroke-dasharray:none;stroke-opacity:1;paint-order:fill markers stroke"
       id="path15"
       inkscape:flatsided="true"
       sodipodi:sides="3"
       sodipodi:cx="167"
       sodipodi:cy="176.53125"
       sodipodi:r1="1.5"
       sodipodi:r2="0.75"
       sodipodi:arg1="1.5707963"
       sodipodi:arg2="2.6179939"
       inkscape:rounded="0"
       inkscape:randomized="0"
       d="m 167,178.03125 -1.29904,-2.25 2.59808,0 z"
       inkscape:transform-center-y="0.33333181"
       transform="matrix(1.5396007,0,0,0.88888888,-89.11332,19.750002)"
       inkscape:transform-center-x="6.0283408e-06" /><rect
       style="fill:#000000;stroke-width:0.656488;stroke-linecap:round;stroke-linejoin:bevel;paint-order:fill markers stroke"
       id="rect1"
       width="1"
       height="3"
       x="165"
       y="179"
       ry="0.5" /><rect
       style="display:inline;fill:#000000;stroke-width:0.53602;stroke-linecap:round;stroke-linejoin:bevel;paint-order:fill markers stroke;enable-background:new"
       id="rect1-3-2-3"
       width="1"
       height="2"
       x="163"
       y="179"
       ry="0.5" /><rect
       style="display:inline;fill:#000000;stroke-width:0.868452;stroke-linecap:round;stroke-linejoin:bevel;paint-order:fill markers stroke;enable-background:new"
       id="rect1-3"
       width="1.5"
       height="3.5"
       x="167.25"
       y="179"
       ry="0.75" /><rect
       style="display:inline;fill:#000000;stroke-width:0.656488;stroke-linecap:round;stroke-linejoin:bevel;paint-order:fill markers stroke;enable-background:new"
       id="rect1-3-2"
       width="1"
       height="3"
       x="170"
       y="179"
       ry="0.5" /><rect
       style="display:inline;fill:#000000;stroke-width:0.53602;stroke-linecap:round;stroke-linejoin:bevel;paint-order:fill markers stroke;enable-background:new"
       id="rect1-3-2-4"
       width="1"
       height="2"
       x="172"
       y="179"
       ry="0.5" /></g></svg>
