<?xml version="1.0" encoding="UTF-8"?>
<svg height="16px" viewBox="0 0 16 16" width="16px" xmlns="http://www.w3.org/2000/svg">
    <path d="m 5.601562 1.007812 c -4.519531 0.242188 -5.84375 4.59375 -5.5664058 6.988282 c 0.4023438 3.4375 3.5585938 6.835937 7.9648438 6.871094 c 4.40625 -0.035157 7.5625 -3.433594 7.964844 -6.871094 c 0.277344 -2.394532 -1.046875 -6.746094 -5.566406 -6.988282 c -0.640626 -0.035156 -1.617188 0.070313 -2.398438 0.1875 c -0.78125 -0.117187 -1.757812 -0.222656 -2.398438 -0.1875 z m 0.597657 1.929688 c 0.484375 -0.023438 1.214843 0.050781 1.800781 0.136719 c 0.585938 -0.085938 1.316406 -0.160157 1.800781 -0.136719 c 3.390625 0.175781 4.382813 3.316406 4.171875 5.042969 c -0.300781 2.476562 -2.667968 4.925781 -5.972656 4.953125 c -3.304688 -0.027344 -5.671875 -2.476563 -5.972656 -4.953125 c -0.210938 -1.726563 0.78125 -4.867188 4.171875 -5.042969 z m 0 0"/>
    <path d="m 1 7 h 14 v 1 h -14 z m 0 0" fill-rule="evenodd"/>
    <path d="m 8 6 l -2 -2 h 4 z m 0 0" fill-rule="evenodd"/>
    <path d="m 5.5 7 c 0.277344 0 0.5 0.222656 0.5 0.5 v 2 c 0 0.277344 -0.222656 0.5 -0.5 0.5 s -0.5 -0.222656 -0.5 -0.5 v -2 c 0 -0.277344 0.222656 -0.5 0.5 -0.5 z m 0 0"/>
    <path d="m 3.5 7 c 0.277344 0 0.5 0.222656 0.5 0.5 v 1 c 0 0.277344 -0.222656 0.5 -0.5 0.5 s -0.5 -0.222656 -0.5 -0.5 v -1 c 0 -0.277344 0.222656 -0.5 0.5 -0.5 z m 0 0"/>
    <path d="m 8 7 c 0.414062 0 0.75 0.335938 0.75 0.75 v 2 c 0 0.414062 -0.335938 0.75 -0.75 0.75 s -0.75 -0.335938 -0.75 -0.75 v -2 c 0 -0.414062 0.335938 -0.75 0.75 -0.75 z m 0 0"/>
    <path d="m 10.5 7 c 0.277344 0 0.5 0.222656 0.5 0.5 v 2 c 0 0.277344 -0.222656 0.5 -0.5 0.5 s -0.5 -0.222656 -0.5 -0.5 v -2 c 0 -0.277344 0.222656 -0.5 0.5 -0.5 z m 0 0"/>
    <path d="m 12.5 7 c 0.277344 0 0.5 0.222656 0.5 0.5 v 1 c 0 0.277344 -0.222656 0.5 -0.5 0.5 s -0.5 -0.222656 -0.5 -0.5 v -1 c 0 -0.277344 0.222656 -0.5 0.5 -0.5 z m 0 0"/>
</svg>
