<?xml version="1.0" encoding="UTF-8"?>
<svg width="16px" height="16px" viewBox="0 0 16 16" xmlns="http://www.w3.org/2000/svg">
 <g fill="#222">
  <path d="m13 9.0508-1 0.003907h-10v3.8555c0 1.1875 0.95703 2.1445 2.1445 2.1445h5.7148c0.89844 0 1.6602-0.55078 1.9805-1.3281 0.35547 0.19531 0.75391 0.30078 1.1602 0.30859 1.3828 0 2.5-1.1211 2.5-2.5s-1.1172-2.4844-2.5-2.4844zm0 1.0195c0.80859 0 1.4648 0.65625 1.4648 1.4648s-0.65625 1.4648-1.4648 1.4648c-0.37891-0.019531-0.73828-0.18359-1-0.46094v-2.0078c0.26172-0.27734 0.62109-0.44141 1-0.46094z"/>
  <path d="m5.9648 1v0.51562c0 0.82031 0.67578 1.5 1.5 1.5h3c0.28125 0 0.5 0.21484 0.5 0.5 0 0.28125-0.21875 0.5-0.5 0.5h-7c-0.82422 0-1.5 0.67578-1.5 1.5 0 0.82031 0.67578 1.5 1.5 1.5h4c0.28125 0 0.5 0.21484 0.5 0.5v0.48438h1v-0.48438c0-0.82422-0.67969-1.5-1.5-1.5h-4c-0.28516 0-0.5-0.21875-0.5-0.5 0-0.28516 0.21484-0.5 0.5-0.5h7c0.82031 0 1.5-0.67969 1.5-1.5 0-0.82422-0.67969-1.5-1.5-1.5h-3c-0.28516 0-0.5-0.21875-0.5-0.5v-0.51562z"/>
 </g>
</svg>
