<?xml version="1.0" encoding="utf-8"?>
<svg xmlns="http://www.w3.org/2000/svg" height="16px" viewBox="0 0 16 16" width="16px">
  <g fill="#222222" >
    <path d="M 16 8 C 16 12.418 12.418 16 8 16 C 3.582 16 0 12.418 0 8 C 0 3.582 3.582 0 8 0 C 12.418 0 16 3.582 16 8 Z M 8 1.5 C 4.41 1.5 1.5 4.41 1.5 8 C 1.5 11.59 4.41 14.5 8 14.5 C 11.59 14.5 14.5 11.59 14.5 8 C 14.5 4.41 11.59 1.5 8 1.5 Z"/>
    <path d="M 8.0190043,2.8141785 C 7.8420678,2.8138122 7.668524,2.9246823 7.6322876,3.1403527 7.3671226,4.367183 6.8532893,6.5542374 6.8002563,8.0426972 6.8306619,8.7024278 7.3946007,9.2336983 8.05221,9.2223846 8.7069909,9.2138994 9.226271,8.6605367 9.1986939,8.0036345 8.9801979,6.3327412 8.7151361,4.1235331 8.4174441,3.1286339 8.3976451,3.0494379 8.3614745,2.9847709 8.311977,2.9352734 8.233223,2.854398 8.1251707,2.8143977 8.0190085,2.8141799 Z"/>
  </g>
</svg>